<?xml version="1.0" encoding="UTF-8"?>
<!-- Created with Inkscape (http://www.inkscape.org/) -->
<svg width="16" height="16" version="1.1" viewBox="0 0 4.2333 4.2333" xmlns="http://www.w3.org/2000/svg">
 <path d="m1.4059 0.89018a0.77575 0.80584 0 0 0-0.50417 0.19556c-0.10746 0.096177-0.18531 0.2215-0.20537 0.34726-0.23511 0.053917-0.41271 0.26667-0.41271 0.52358 0 0.29844 0.2396 0.53655 0.5304 0.53655h1.2493c0.25461 0 0.46475-0.20838 0.46475-0.47025 0-0.2384-0.17423-0.43265-0.39756-0.46544-0.034086-0.37596-0.34734-0.66726-0.72469-0.66726zm0.33022 0.99878-0.28056 0.29144a0.07014 0.072861 0 0 1-0.099319 0l-0.28056-0.29144a0.070229 0.072953 0 1 1 0.099319-0.10317l0.16076 0.16714v-0.55272a0.07014 0.072861 0 0 1 0.14028 0v0.55272l0.16076-0.16714a0.070229 0.072953 0 0 1 0.099319 0.10317z" stroke-width=".14298"/>
 <g stroke-width=".26458">
  <path d="m3.1384 3.454c0 0.29236-0.29633 0.52917-0.66146 0.52917s-0.66146-0.2368-0.66146-0.52917c0-0.29236 0.29633-0.52917 0.66146-0.52917s0.66146 0.2368 0.66146 0.52917z"/>
  <path d="m3.1384 0.80819v2.6458h-0.26458v-2.6458z" fill-rule="evenodd"/>
  <path d="m2.8738 0.76057a0.26458 0.26458 0 0 1 0.21272-0.25929l0.79375-0.15875a0.26458 0.26458 0 0 1 0.31644 0.25929v0.47096l-1.3229 0.26458z"/>
 </g>
</svg>
